<svg width="81" height="24" viewBox="0 0 81 24" fill="none" xmlns="http://www.w3.org/2000/svg">
<path d="M17.2409 9.57694C17.5726 9.57694 17.8901 9.38719 18.1249 9.0487L19.8167 6.60849C20.0609 6.25648 20.0609 5.68587 19.8167 5.3334L18.1249 2.8932C17.8905 2.55516 17.5726 2.3654 17.2409 2.3654H10.6249V1.28367C10.6249 1.08445 10.4851 0.923096 10.3124 0.923096H9.68741C9.51475 0.923096 9.37491 1.08445 9.37491 1.28367V2.3654H2.1874C1.66983 2.3654 1.2499 2.97072 1.2499 3.71757V8.22478C1.2499 8.97162 1.66983 9.57694 2.1874 9.57694H9.37491V11.0192H2.75889C2.42725 11.0192 2.10928 11.209 1.8749 11.547L0.183106 13.9877C-0.0610352 14.3397 -0.0610352 14.9103 0.183106 15.2628L1.8749 17.7025C2.10928 18.0406 2.42725 18.2308 2.75889 18.2308H9.37491V23.6394C9.37491 23.8387 9.51475 24 9.68741 24H10.3124C10.4851 24 10.6249 23.8387 10.6249 23.6394V18.2308H17.8124C18.33 18.2308 18.7499 17.6255 18.7499 16.8786V12.3714C18.7499 11.6246 18.33 11.0192 17.8124 11.0192H10.6249V9.57694H17.2409ZM17.4901 16.7885H2.8417L1.3417 14.625L2.84365 12.4616H17.4995L17.4901 16.7885ZM2.50967 3.80771H17.1581L18.6581 5.97117L17.1562 8.13463H2.50029L2.50967 3.80771Z" fill="white"/>
<path d="M35.0078 19H33.5V8.85938H27.8906V19H26.3906V7.625H35.0078V19ZM44.6562 14.8672C44.6562 16.1536 44.362 17.1901 43.7734 17.9766C43.1849 18.763 42.388 19.1562 41.3828 19.1562C40.3568 19.1562 39.5495 18.8307 38.9609 18.1797V22.25H37.5156V10.5469H38.8359L38.9062 11.4844C39.4948 10.7552 40.3125 10.3906 41.3594 10.3906C42.375 10.3906 43.1771 10.7734 43.7656 11.5391C44.3594 12.3047 44.6562 13.3698 44.6562 14.7344V14.8672ZM43.2109 14.7031C43.2109 13.75 43.0078 12.9974 42.6016 12.4453C42.1953 11.8932 41.638 11.6172 40.9297 11.6172C40.0547 11.6172 39.3984 12.0052 38.9609 12.7812V16.8203C39.3932 17.5911 40.0547 17.9766 40.9453 17.9766C41.638 17.9766 42.1875 17.7031 42.5938 17.1562C43.0052 16.6042 43.2109 15.7865 43.2109 14.7031ZM46.1172 14.6953C46.1172 13.8672 46.2786 13.1224 46.6016 12.4609C46.9297 11.7995 47.3828 11.2891 47.9609 10.9297C48.5443 10.5703 49.2083 10.3906 49.9531 10.3906C51.1042 10.3906 52.0339 10.7891 52.7422 11.5859C53.4557 12.3828 53.8125 13.4427 53.8125 14.7656V14.8672C53.8125 15.6901 53.6536 16.4297 53.3359 17.0859C53.0234 17.737 52.5729 18.2448 51.9844 18.6094C51.401 18.974 50.7292 19.1562 49.9688 19.1562C48.8229 19.1562 47.8932 18.7578 47.1797 17.9609C46.4714 17.1641 46.1172 16.1094 46.1172 14.7969V14.6953ZM47.5703 14.8672C47.5703 15.8047 47.7865 16.5573 48.2188 17.125C48.6562 17.6927 49.2396 17.9766 49.9688 17.9766C50.7031 17.9766 51.2865 17.6901 51.7188 17.1172C52.151 16.5391 52.3672 15.7318 52.3672 14.6953C52.3672 13.7682 52.1458 13.0182 51.7031 12.4453C51.2656 11.8672 50.6823 11.5781 49.9531 11.5781C49.2396 11.5781 48.6641 11.862 48.2266 12.4297C47.7891 12.9974 47.5703 13.8099 47.5703 14.8672ZM59.1328 19.1562C57.987 19.1562 57.0547 18.7812 56.3359 18.0312C55.6172 17.276 55.2578 16.2682 55.2578 15.0078V14.7422C55.2578 13.9036 55.4167 13.1562 55.7344 12.5C56.0573 11.8385 56.5052 11.3229 57.0781 10.9531C57.6562 10.5781 58.2812 10.3906 58.9531 10.3906C60.0521 10.3906 60.9062 10.7526 61.5156 11.4766C62.125 12.2005 62.4297 13.237 62.4297 14.5859V15.1875H56.7031C56.724 16.0208 56.9661 16.6953 57.4297 17.2109C57.8984 17.7214 58.4922 17.9766 59.2109 17.9766C59.7214 17.9766 60.1536 17.8724 60.5078 17.6641C60.862 17.4557 61.1719 17.1797 61.4375 16.8359L62.3203 17.5234C61.612 18.612 60.5495 19.1562 59.1328 19.1562ZM58.9531 11.5781C58.3698 11.5781 57.8802 11.7917 57.4844 12.2188C57.0885 12.6406 56.8438 13.2344 56.75 14H60.9844V13.8906C60.9427 13.1562 60.7448 12.5885 60.3906 12.1875C60.0365 11.7812 59.5573 11.5781 58.9531 11.5781ZM68.7578 12.8594C68.7578 12.4635 68.6068 12.151 68.3047 11.9219C68.0026 11.6875 67.5885 11.5703 67.0625 11.5703C66.5521 11.5703 66.125 11.7031 65.7812 11.9688C65.4427 12.2344 65.2734 12.5469 65.2734 12.9062H63.8359C63.8359 12.1719 64.1432 11.5703 64.7578 11.1016C65.3724 10.6328 66.1406 10.3984 67.0625 10.3984C68.0521 10.3984 68.8229 10.612 69.375 11.0391C69.9271 11.4609 70.2031 12.0651 70.2031 12.8516C70.2031 13.2318 70.0885 13.5807 69.8594 13.8984C69.6302 14.2161 69.3047 14.4688 68.8828 14.6562C69.8672 14.9896 70.3594 15.6458 70.3594 16.625C70.3594 17.401 70.0599 18.0156 69.4609 18.4688C68.862 18.9219 68.0625 19.1484 67.0625 19.1484C66.0885 19.1484 65.2839 18.9115 64.6484 18.4375C64.0182 17.9583 63.7031 17.3125 63.7031 16.5H65.1406C65.1406 16.9115 65.3229 17.2656 65.6875 17.5625C66.0573 17.8542 66.5156 18 67.0625 18C67.6146 18 68.0599 17.8724 68.3984 17.6172C68.737 17.362 68.9062 17.0312 68.9062 16.625C68.9062 16.151 68.763 15.8125 68.4766 15.6094C68.1953 15.401 67.7552 15.2969 67.1562 15.2969H65.7109V14.0781H67.2812C68.2656 14.0521 68.7578 13.6458 68.7578 12.8594ZM72.1641 17.8203L72.6641 17.2031C73.2266 16.474 73.5469 15.3802 73.625 13.9219L73.7578 10.5469H79.2031V17.8203H80.2891V21.4844H78.8438V19H72.9453V21.4844H71.5L71.5078 17.8203H72.1641ZM73.875 17.8203H77.7578V11.8828H75.1562L75.0703 13.8984C74.9818 15.5807 74.5833 16.888 73.875 17.8203Z" fill="white"/>
</svg>
